<svg width="270" height="48" viewBox="0 0 270 48" fill="none" xmlns="http://www.w3.org/2000/svg"><path d="M57.928 35.307L48.864 13.32a1.9 1.9 0 01-.112-.624 1.723 1.723 0 01.446-1.226 1.56 1.56 0 011.202-.468c.337.005.664.114.936.312.286.212.51.496.65.824l8.619 21.516 8.614-21.514c.138-.329.363-.613.65-.824.272-.199.599-.308.935-.312a1.559 1.559 0 011.202.468c.304.334.464.774.446 1.225-.002.213-.04.424-.112.624l-9.067 21.986A2.438 2.438 0 0161 36.997h-.8a2.438 2.438 0 01-2.271-1.69z" fill="url(#paint0_linear)"/><path d="M76.3 36.328a1.611 1.611 0 01-.467-1.18V12.871a1.7 1.7 0 01.468-1.202 1.547 1.547 0 011.18-.487h14.727a1.462 1.462 0 011.114.468 1.495 1.495 0 01.468 1.113 1.416 1.416 0 01-.468 1.092 1.558 1.558 0 01-1.114.446H79.174v8.107h11.715a1.463 1.463 0 011.114.468 1.533 1.533 0 01.468 1.114 1.415 1.415 0 01-.468 1.091 1.56 1.56 0 01-1.114.446H79.174v8.153h13.034a1.462 1.462 0 011.114.468 1.496 1.496 0 01.468 1.113 1.416 1.416 0 01-.468 1.092 1.56 1.56 0 01-1.114.446H77.481a1.455 1.455 0 01-1.18-.47z" fill="url(#paint1_linear)"/><path d="M50.912 34.68l-9.064-21.987a2.439 2.439 0 00-2.271-1.69h-.802a2.437 2.437 0 00-2.272 1.69L32.56 22.27h-2.99a1.635 1.635 0 00-1.616 1.63v.022a1.635 1.635 0 001.626 1.626h1.604l-3.77 9.132c-.07.2-.108.412-.11.624-.019.451.141.892.445 1.226a1.56 1.56 0 001.202.468c.337-.005.664-.114.936-.312.286-.212.51-.496.65-.824l4.141-10.313h2.85a1.635 1.635 0 001.626-1.626v-.045a1.635 1.635 0 00-1.625-1.626h-1.537l3.184-7.907 8.62 21.515c.138.328.363.613.65.824.271.199.598.308.935.312a1.559 1.559 0 001.202-.468c.304-.334.464-.774.446-1.225a1.476 1.476 0 00-.118-.623z" fill="url(#paint2_linear)"/><path d="M23.83 34.68l-9.063-21.987a2.438 2.438 0 00-2.272-1.69h-.802a2.438 2.438 0 00-2.272 1.69L5.48 22.274H2.49A1.634 1.634 0 00.874 23.9v.022a1.635 1.635 0 001.625 1.626h1.6L.33 34.68c-.07.2-.109.412-.111.624-.018.451.142.892.445 1.226a1.559 1.559 0 001.203.468 1.63 1.63 0 00.935-.312c.287-.212.511-.496.65-.824l4.142-10.313h2.873a1.635 1.635 0 001.628-1.627v-.044a1.635 1.635 0 00-1.626-1.626H8.93l3.162-7.907 8.62 21.515c.138.328.363.613.65.824.271.199.598.308.935.312a1.56 1.56 0 001.202-.468c.304-.334.464-.774.446-1.225a1.477 1.477 0 00-.116-.623z" fill="url(#paint3_linear)"/><path d="M123.879 38a1.068 1.068 0 01-1.064-1.064v-3.1a1.062 1.062 0 00-1.064-1.063 1.063 1.063 0 00-1.064 1.064v1.471a1.065 1.065 0 01-1.064 1.064 1.063 1.063 0 01-1.064-1.064v-1.471a1.065 1.065 0 00-1.064-1.064 1.064 1.064 0 00-1.064 1.064v.4a1.067 1.067 0 01-1.064 1.065 1.063 1.063 0 01-1.065-1.065v-.4a1.062 1.062 0 00-1.064-1.064 1.063 1.063 0 00-1.064 1.064v1.471a1.062 1.062 0 01-1.064 1.064 1.063 1.063 0 01-1.064-1.064v-1.471a1.062 1.062 0 00-1.064-1.064 1.063 1.063 0 00-1.064 1.064v3.1A1.066 1.066 0 01106.854 38a1.063 1.063 0 01-1.064-1.064V19.37a9.6 9.6 0 017.719-9.184 9.595 9.595 0 0111.464 9.184.064.064 0 01-.006.038.065.065 0 01-.025.03v17.498A1.064 1.064 0 01123.879 38zm-9.589-15.84c-.27 0-.38.105-.38.364 0 .628.694 1.138 1.548 1.138.855 0 1.546-.51 1.546-1.138 0-.258-.11-.363-.379-.363-.144.005-.288.02-.43.044l-.013.002c-.24.04-.481.061-.723.066a5.094 5.094 0 01-.725-.066 3.245 3.245 0 00-.444-.046zm4.632-5.169c-.942 0-1.708.877-1.708 1.955 0 1.079.766 1.954 1.708 1.954.941 0 1.704-.877 1.704-1.954s-.764-1.955-1.704-1.955zm-7.079 0c-.94 0-1.705.877-1.705 1.955 0 1.079.765 1.954 1.705 1.954.939 0 1.705-.877 1.705-1.954s-.765-1.955-1.705-1.955z" fill="url(#paint4_linear)"/><path stroke="#F1F1F3" d="M141.474 8v32"/><path d="M205.729 12.852h3.631v21.42h-3.631v-21.42zm7.262 0h7.405c1.611 0 2.958.183 3.998.53 1.04.347 1.877.836 2.468 1.448a4.987 4.987 0 011.265 2.081c.246.8.37 1.632.367 2.468a9.298 9.298 0 01-.367 2.632 5.411 5.411 0 01-1.265 2.203 6.236 6.236 0 01-2.468 1.49c-1.04.367-2.346.55-3.937.55h-3.896v8.017h-3.57v-21.42zm7.384 10.403a7.829 7.829 0 002.265-.265 3.325 3.325 0 001.387-.755 2.71 2.71 0 00.714-1.183 6.101 6.101 0 00.204-1.55 5.245 5.245 0 00-.204-1.57 2.448 2.448 0 00-.735-1.123 3.49 3.49 0 00-1.407-.693 8.485 8.485 0 00-2.224-.245h-3.774v7.384h3.774zm24.459-10.403v3.12h-10.036v6.06h9.445v3.141h-9.445v9.098h-3.631v-21.42h13.667zm5.345 14.87c.163 1.409.673 2.428 1.51 3.06.836.633 2.121.96 3.794.96.696.02 1.392-.07 2.06-.266a4.192 4.192 0 001.347-.714c.327-.284.574-.65.714-1.06.142-.42.21-.862.204-1.306a3.286 3.286 0 00-.143-1 2.625 2.625 0 00-.531-.918 3.381 3.381 0 00-1.04-.734 7.124 7.124 0 00-1.673-.49l-2.733-.51a18.313 18.313 0 01-2.877-.754 6.837 6.837 0 01-2.121-1.183 4.535 4.535 0 01-1.285-1.795 6.956 6.956 0 01-.429-2.591 5.31 5.31 0 012.305-4.57 7.416 7.416 0 012.571-1.142 13.435 13.435 0 013.223-.367c1.469 0 2.713.163 3.713.51a7.023 7.023 0 012.427 1.326 5.762 5.762 0 011.408 1.897c.319.715.538 1.47.652 2.244l-3.427.53c-.285-1.203-.754-2.08-1.448-2.672-.694-.592-1.775-.877-3.284-.877a8.952 8.952 0 00-2.142.224 3.97 3.97 0 00-1.387.632 2.368 2.368 0 00-.755.939 2.875 2.875 0 00-.225 1.101c0 .939.245 1.632.755 2.101.51.47 1.408.816 2.693 1.082l2.958.57c2.264.43 3.917 1.143 4.977 2.143 1.061 1 1.591 2.468 1.591 4.365a6.39 6.39 0 01-.489 2.51 5.153 5.153 0 01-1.51 1.999 7.458 7.458 0 01-2.529 1.346 11.427 11.427 0 01-3.529.49c-2.734 0-4.896-.572-6.447-1.734-1.55-1.163-2.427-2.938-2.57-5.345h3.672z" fill="#383D51"/><path d="M163.155 33.455l17.135 9.894 17.136-9.894V13.668L180.29 3.774l-17.135 9.894v19.787z" fill="#469EA2"/><path d="M178.536 6.14l-12.444 7.18c.02.225.02.45 0 .674l12.423 7.18a2.97 2.97 0 013.529 0l12.424-7.18a3.604 3.604 0 010-.673l-12.403-7.18a2.968 2.968 0 01-3.529 0zm17.135 9.833l-12.443 7.262a3.009 3.009 0 01-1.755 3.06l.021 14.28c.201.088.392.198.571.326l12.423-7.18a3.008 3.008 0 011.754-3.06V16.298a4.175 4.175 0 01-.571-.326zm-30.762.081a3.17 3.17 0 01-.571.327v14.36a2.933 2.933 0 011.754 3.06l12.423 7.181c.179-.128.37-.237.571-.326V26.295a2.934 2.934 0 01-1.754-3.06l-12.423-7.18z" fill="#6ACAD1"/><path d="M180.29 5.916l15.32 8.853v17.687l-15.32 8.853-15.32-8.853V14.749l15.32-8.833zm0-2.101l-17.135 9.894v19.787l17.135 9.894 17.136-9.894V13.708L180.29 3.816z" fill="#469EA2"/><path d="M180.413 26.927h-.245a3.193 3.193 0 01-3.203-3.202v-.245a3.188 3.188 0 01.936-2.267 3.189 3.189 0 012.267-.936h.245a3.192 3.192 0 013.202 3.203v.245a3.206 3.206 0 01-.935 2.267 3.202 3.202 0 01-2.267.935zm0 13.158h-.245a3.196 3.196 0 00-2.795 1.632l2.917 1.673 2.917-1.673a3.193 3.193 0 00-2.794-1.632zm17.033-9.894h-.122a3.197 3.197 0 00-3.203 3.203v.245a3.087 3.087 0 00.408 1.55l2.917-1.693v-3.305zm-2.917-18.155a3.143 3.143 0 00-.408 1.55v.245a3.188 3.188 0 00.936 2.267 3.189 3.189 0 002.267.936h.122v-3.325l-2.917-1.673zM180.29 3.815l-2.917 1.672a3.212 3.212 0 002.795 1.653h.245a3.19 3.19 0 002.794-1.632l-2.917-1.693zm-14.218 8.2l-2.917 1.694v3.325h.122a3.197 3.197 0 003.203-3.203v-.245a3.395 3.395 0 00-.408-1.57zm-2.795 18.176h-.122v3.305l2.917 1.693a3.154 3.154 0 00.408-1.55v-.245a3.188 3.188 0 00-.936-2.267 3.2 3.2 0 00-2.267-.936z" fill="#469EA2"/><path d="M180.29 43.492V23.684l-17.135-9.894v19.808l17.135 9.894z" fill="#083B54" fill-opacity=".15"/><path d="M197.446 33.414V13.627l-17.135 9.893v19.808l17.135-9.914z" fill="#083B54" fill-opacity=".05"/><defs><linearGradient id="paint0_linear" x1="1.369" y1="37.88" x2="96.076" y2="17.78" gradientUnits="userSpaceOnUse"><stop stop-color="#30BAC6"/><stop offset="1" stop-color="#B6509E"/></linearGradient><linearGradient id="paint1_linear" x1="3.137" y1="44.873" x2="98.548" y2="32.903" gradientUnits="userSpaceOnUse"><stop stop-color="#30BAC6"/><stop offset="1" stop-color="#B6509E"/></linearGradient><linearGradient id="paint2_linear" x1=".655" y1="35.076" x2="95.364" y2="14.934" gradientUnits="userSpaceOnUse"><stop stop-color="#30BAC6"/><stop offset="1" stop-color="#B6509E"/></linearGradient><linearGradient id="paint3_linear" x1="-.993" y1="28.603" x2="93.722" y2="8.436" gradientUnits="userSpaceOnUse"><stop stop-color="#30BAC6"/><stop offset="1" stop-color="#B6509E"/></linearGradient><linearGradient id="paint4_linear" x1="124.974" y1="20.555" x2="104.368" y2="26.014" gradientUnits="userSpaceOnUse"><stop stop-color="#B6509E"/><stop offset="1" stop-color="#2EBAC6"/></linearGradient></defs></svg>