<svg width="400" height="210" viewBox="0 0 847 414" fill="none" xmlns="http://www.w3.org/2000/svg">
<g filter="url(#filter0_d_5_19)">
<path d="M331.448 215.843C326.327 215.843 322.116 214.363 318.815 211.404C315.629 208.331 314.036 204.576 314.036 200.137C314.036 195.585 315.629 191.829 318.815 188.87C322.116 185.798 326.327 184.261 331.448 184.261C336.455 184.261 340.553 185.798 343.739 188.87C347.039 191.829 348.69 195.585 348.69 200.137C348.69 204.576 347.039 208.331 343.739 211.404C340.553 214.363 336.455 215.843 331.448 215.843ZM345.958 225.744V321H316.767V225.744H345.958ZM488.659 224.72C500.494 224.72 509.884 228.304 516.826 235.474C523.882 242.644 527.41 252.602 527.41 265.349V321H498.389V269.275C498.389 263.129 496.739 258.406 493.438 255.106C490.252 251.692 485.813 249.985 480.123 249.985C474.433 249.985 469.937 251.692 466.637 255.106C463.45 258.406 461.857 263.129 461.857 269.275V321H432.836V269.275C432.836 263.129 431.186 258.406 427.886 255.106C424.699 251.692 420.261 249.985 414.57 249.985C408.88 249.985 404.385 251.692 401.084 255.106C397.898 258.406 396.304 263.129 396.304 269.275V321H367.113V225.744H396.304V237.694C399.263 233.71 403.133 230.581 407.913 228.304C412.693 225.915 418.098 224.72 424.13 224.72C431.3 224.72 437.673 226.256 443.25 229.329C448.94 232.402 453.378 236.783 456.565 242.473C459.865 237.238 464.361 232.971 470.051 229.67C475.741 226.37 481.944 224.72 488.659 224.72ZM577.017 241.62C580.431 236.385 584.699 232.288 589.82 229.329C594.942 226.256 600.632 224.72 606.891 224.72V255.618H598.868C591.584 255.618 586.122 257.211 582.48 260.398C578.838 263.471 577.017 268.933 577.017 276.786V321H547.826V225.744H577.017V241.62ZM664.204 322.366C654.872 322.366 646.451 320.374 638.939 316.391C631.542 312.408 625.681 306.717 621.356 299.32C617.145 291.922 615.04 283.273 615.04 273.372C615.04 263.585 617.202 254.992 621.527 247.595C625.852 240.083 631.77 234.336 639.281 230.353C646.792 226.37 655.214 224.378 664.546 224.378C673.878 224.378 682.3 226.37 689.811 230.353C697.322 234.336 703.24 240.083 707.565 247.595C711.889 254.992 714.052 263.585 714.052 273.372C714.052 283.159 711.833 291.809 707.394 299.32C703.069 306.717 697.095 312.408 689.47 316.391C681.958 320.374 673.537 322.366 664.204 322.366ZM664.204 297.101C669.781 297.101 674.504 295.052 678.373 290.955C682.357 286.858 684.348 280.997 684.348 273.372C684.348 265.747 682.414 259.886 678.544 255.789C674.788 251.692 670.122 249.643 664.546 249.643C658.856 249.643 654.133 251.692 650.377 255.789C646.621 259.772 644.744 265.633 644.744 273.372C644.744 280.997 646.564 286.858 650.206 290.955C653.962 295.052 658.628 297.101 664.204 297.101ZM723.734 273.201C723.734 263.414 725.555 254.821 729.197 247.424C732.953 240.027 738.017 234.336 744.39 230.353C750.763 226.37 757.876 224.378 765.729 224.378C771.988 224.378 777.679 225.687 782.8 228.304C788.035 230.922 792.132 234.45 795.091 238.888V194.675H824.282V321H795.091V307.343C792.36 311.895 788.433 315.537 783.312 318.269C778.305 321 772.443 322.366 765.729 322.366C757.876 322.366 750.763 320.374 744.39 316.391C738.017 312.294 732.953 306.547 729.197 299.149C725.555 291.638 723.734 282.989 723.734 273.201ZM795.091 273.372C795.091 266.088 793.042 260.341 788.945 256.13C784.962 251.919 780.069 249.814 774.264 249.814C768.46 249.814 763.51 251.919 759.413 256.13C755.429 260.227 753.438 265.918 753.438 273.201C753.438 280.485 755.429 286.289 759.413 290.614C763.51 294.824 768.46 296.93 774.264 296.93C780.069 296.93 784.962 294.824 788.945 290.614C793.042 286.403 795.091 280.656 795.091 273.372Z" fill="white"/>
</g>
<g filter="url(#filter1_d_5_19)">
<path d="M287.967 304.438C289.269 310.95 298.126 323.193 323.133 320.067C348.14 316.941 359.602 329.184 362.207 335.697M362.207 335.697L367.862 347.006C369.185 349.654 371.891 351.326 374.851 351.326H827.185C831.501 351.326 835 347.828 835 343.512V335.697C835 331.381 831.501 327.882 827.185 327.882H370.022C365.706 327.882 362.207 331.381 362.207 335.697V335.697Z" stroke="white" stroke-width="15.6295" stroke-linecap="round" shape-rendering="crispEdges"/>
</g>
<g filter="url(#filter2_d_5_19)">
<path d="M40 353.883C77.418 248.136 67.7063 134.301 52.3032 63.8532C49.0312 48.8881 47.3952 41.4056 48.778 39.5391C49.8172 38.1365 51.2759 37.4258 53.0209 37.4719C55.343 37.5331 60.1307 43.3162 69.706 54.8825L298.192 330.875C260.699 270.375 209.742 123.299 305.861 19" stroke="white" stroke-width="37.23" stroke-linecap="round"/>
</g>
<defs>
<filter id="filter0_d_5_19" x="310.036" y="184.261" width="518.247" height="146.104" filterUnits="userSpaceOnUse" color-interpolation-filters="sRGB">
<feFlood flood-opacity="0" result="BackgroundImageFix"/>
<feColorMatrix in="SourceAlpha" type="matrix" values="0 0 0 0 0 0 0 0 0 0 0 0 0 0 0 0 0 0 127 0" result="hardAlpha"/>
<feOffset dy="4"/>
<feGaussianBlur stdDeviation="2"/>
<feComposite in2="hardAlpha" operator="out"/>
<feColorMatrix type="matrix" values="0 0 0 0 0 0 0 0 0 0 0 0 0 0 0 0 0 0 0.25 0"/>
<feBlend mode="normal" in2="BackgroundImageFix" result="effect1_dropShadow_5_19"/>
<feBlend mode="normal" in="SourceGraphic" in2="effect1_dropShadow_5_19" result="shape"/>
</filter>
<filter id="filter1_d_5_19" x="276.15" y="296.621" width="570.665" height="70.5197" filterUnits="userSpaceOnUse" color-interpolation-filters="sRGB">
<feFlood flood-opacity="0" result="BackgroundImageFix"/>
<feColorMatrix in="SourceAlpha" type="matrix" values="0 0 0 0 0 0 0 0 0 0 0 0 0 0 0 0 0 0 127 0" result="hardAlpha"/>
<feOffset dy="4"/>
<feGaussianBlur stdDeviation="2"/>
<feComposite in2="hardAlpha" operator="out"/>
<feColorMatrix type="matrix" values="0 0 0 0 0 0 0 0 0 0 0 0 0 0 0 0 0 0 0.25 0"/>
<feBlend mode="normal" in2="BackgroundImageFix" result="effect1_dropShadow_5_19"/>
<feBlend mode="normal" in="SourceGraphic" in2="effect1_dropShadow_5_19" result="shape"/>
</filter>
<filter id="filter2_d_5_19" x="0.929064" y="0.384888" width="343.998" height="413.02" filterUnits="userSpaceOnUse" color-interpolation-filters="sRGB">
<feFlood flood-opacity="0" result="BackgroundImageFix"/>
<feColorMatrix in="SourceAlpha" type="matrix" values="0 0 0 0 0 0 0 0 0 0 0 0 0 0 0 0 0 0 127 0" result="hardAlpha"/>
<feOffset dy="20.4508"/>
<feGaussianBlur stdDeviation="10.2254"/>
<feComposite in2="hardAlpha" operator="out"/>
<feColorMatrix type="matrix" values="0 0 0 0 0 0 0 0 0 0 0 0 0 0 0 0 0 0 0.25 0"/>
<feBlend mode="normal" in2="BackgroundImageFix" result="effect1_dropShadow_5_19"/>
<feBlend mode="normal" in="SourceGraphic" in2="effect1_dropShadow_5_19" result="shape"/>
</filter>
</defs>
</svg>
