<svg width="132" height="79" viewBox="0 0 132 79" fill="none" xmlns="http://www.w3.org/2000/svg">
<path d="M19.4461 0.000216649C17.9474 -0.00919285 16.5533 0.288677 15.4892 0.742832C13.6001 1.54911 12.1117 2.49403 10.9323 3.52216C11.4836 5.25248 12.2682 6.82975 13.4776 8.12782C11.7725 7.2964 10.3495 6.34972 9.27028 5.26263C8.48572 6.25724 7.91395 7.29493 7.48688 8.33542C8.03059 11.1552 8.89128 13.7666 10.7278 15.7378C8.96691 14.8791 7.50755 13.8976 6.41643 12.7654C6.26097 14.3238 6.31408 15.6898 6.32702 16.6539C6.33425 17.1887 6.37173 17.7074 6.43744 18.2123C8.78724 20.8949 11.3496 23.1927 14.5163 24.3949C12.328 24.3358 10.333 24.0568 8.56875 23.5162C9.66424 25.0014 11.1676 26.3498 13.0999 27.6128C17.6291 30.5739 24.5674 32.9314 33.7473 34.8132C38.0511 35.6955 44.2537 36.8971 49.9073 37.6629C52.7342 38.0459 55.4257 38.3186 57.6406 38.3926C59.8554 38.4666 61.6309 38.2838 62.3398 38.0239C62.3758 38.0106 63.3553 37.43 64.0903 36.5361C64.8253 35.6422 65.4698 34.4316 65.5962 32.9918C65.8493 30.1121 64.1597 26.0004 55.6878 21.1285C54.6709 20.5438 53.7398 20.2693 52.1852 20.2208C50.6357 22.5136 48.9861 24.7334 47.4293 26.8579L46.5163 28.1036L39.5276 23.1445L40.5009 22.1149C40.8168 21.7804 41.1291 21.4434 41.4379 21.1038C39.3276 21.3383 36.9996 21.5963 34.1602 21.8877C29.5583 22.3603 24.597 19.806 22.4432 16.1191C21.3663 14.2756 21.0887 12.0169 22.2376 9.91195C23.2376 8.08004 25.2091 6.4397 28.2801 5.07076C26.5683 2.35583 24.3859 0.993801 22.2082 0.382477C21.2821 0.12254 20.3453 0.00595056 19.4461 0.000216649ZM58.9058 3.98764C58.7948 3.98863 58.6838 3.99143 58.5729 3.99602C57.9695 4.02057 57.3041 4.09894 56.5654 4.24464C53.8474 4.78113 52.726 6.08949 52.004 7.79819C51.7552 8.38643 51.5855 9.01599 51.4588 9.65187L53.0551 9.08274C56.4795 7.48077 60.3181 6.3384 64.0565 5.93232C63.6526 5.55785 63.1867 5.19206 62.6193 4.87904C61.6944 4.36872 60.5381 3.97426 58.9058 3.98764ZM65.8502 8.45289C63.1935 8.60329 60.3068 9.23917 57.5565 10.2023C56.6414 12.7708 55.314 15.2886 53.7995 17.7337C55.1351 17.9249 56.2782 18.301 57.3496 18.9173C57.6478 19.0889 57.9439 19.2634 58.2377 19.4407L59.5833 16.9429L60.8428 17.2902C62.2785 17.6857 63.2316 17.6405 63.5338 17.4812C64.4918 16.9758 65.6359 14.8431 65.9705 12.5328C66.1379 11.3778 66.147 10.2035 66.0155 9.24755C65.9783 8.98005 65.9231 8.7147 65.8502 8.45289ZM53.7099 11.707L50.8265 12.7349C48.9216 16.4674 46.6995 19.5317 43.774 22.7499L45.7906 24.1807C48.7444 20.1479 51.7704 15.918 53.7099 11.707ZM12.4043 30.4257C15.0965 33.1374 18.4159 35.731 22.3768 38.0846C23.9123 37.3346 25.4531 36.6343 26.9539 35.9879C21.0512 34.4691 16.1872 32.6665 12.4043 30.4257ZM31.5049 37.062C27.8103 38.5339 23.5741 40.409 19.7429 42.5717C21.1443 42.8921 22.4596 43.4362 23.6528 44.1002C25.7293 45.2561 26.9491 46.9328 27.3073 48.7278C27.6656 50.5226 27.2592 52.3814 26.4952 54.2125C26.0885 55.1877 25.5733 56.162 24.9915 57.1221C33.6678 53.3589 41.6542 49.138 49.4774 44.8227C49.2549 43.2846 49.0579 41.7438 48.8864 40.2007C43.2503 39.415 37.2559 38.2509 33.0568 37.39C32.5388 37.2835 32.0214 37.1741 31.5049 37.062ZM51.9823 40.5953C53.1331 50.6222 55.2891 60.27 58.0345 70H70L68.2739 66.4553C68.223 66.3709 66.8549 65.3467 63.18 65.5815L61.6304 65.6803L60.3356 41.0318C59.4709 41.0777 58.5354 41.0709 57.5254 41.0371C55.8353 40.9808 53.9556 40.8208 51.9823 40.5953ZM16.9725 44.8957C16.3847 44.906 15.7849 44.981 15.1694 45.1301C12.7072 45.726 9.78172 47.6154 6.56518 51.9161C4.29723 54.9488 1.58776 59.2777 0.501852 62.928C-0.0410171 64.7532 -0.153961 66.3854 0.214451 67.5357C0.502692 68.4364 1.00859 69.0765 2.01029 69.5507C2.45147 68.5848 3.01098 67.4769 3.81604 66.447C4.91674 65.0394 6.60753 63.7275 8.97229 63.456C10.6115 63.2675 12.2003 63.2031 13.7421 63.2268C14.6524 63.2407 15.546 63.286 16.4245 63.3537C16.6224 63.1651 16.8121 62.9702 16.9933 62.7694C19.4972 59.9798 22.3507 56.4271 23.6534 53.305C24.3049 51.7439 24.5536 50.3178 24.3271 49.1829C24.1005 48.0479 23.4956 47.1498 22.0285 46.3332C20.3907 45.4215 18.736 44.8655 16.9725 44.8957ZM13.164 65.8708C11.9219 65.8685 10.658 65.9311 9.36658 66.0796C8.02033 66.2343 7.1262 66.9012 6.31341 67.9409C5.90029 68.4695 5.54448 69.0808 5.22464 69.7074L33.1155 69.7511C32.9908 69.5713 32.8286 69.4079 32.5459 69.2274C31.7644 68.7278 29.7874 68.0956 25.8829 67.4243C21.9208 66.7431 17.9325 65.9455 13.6951 65.8757C13.5186 65.8728 13.3415 65.8711 13.164 65.8708Z" fill="#075985"/>
<g filter="url(#filter0_d_4_13)">
<path d="M11 70C18.3186 49.3169 16.4191 27.0518 13.4064 13.2729C12.7664 10.3458 12.4464 8.88233 12.7169 8.51727C12.9202 8.24293 13.2055 8.10392 13.5468 8.11293C14.001 8.12491 14.9374 9.25604 16.8102 11.5183L61.5 65.5C54.1667 53.6667 44.2 24.9 63 4.5" stroke="white" stroke-width="2" stroke-linecap="round"/>
</g>
<path d="M62.6686 51.024C62.1726 51.024 61.7566 50.856 61.4206 50.52C61.0846 50.184 60.9166 49.768 60.9166 49.272C60.9166 48.776 61.0846 48.36 61.4206 48.024C61.7566 47.688 62.1726 47.52 62.6686 47.52C63.1486 47.52 63.5566 47.688 63.8926 48.024C64.2286 48.36 64.3966 48.776 64.3966 49.272C64.3966 49.768 64.2286 50.184 63.8926 50.52C63.5566 50.856 63.1486 51.024 62.6686 51.024ZM64.0126 52.776V66H61.2766V52.776H64.0126ZM83.6127 52.56C84.6527 52.56 85.5807 52.776 86.3967 53.208C87.2287 53.64 87.8767 54.28 88.3407 55.128C88.8207 55.976 89.0607 57 89.0607 58.2V66H86.3487V58.608C86.3487 57.424 86.0527 56.52 85.4607 55.896C84.8687 55.256 84.0607 54.936 83.0367 54.936C82.0127 54.936 81.1967 55.256 80.5887 55.896C79.9967 56.52 79.7007 57.424 79.7007 58.608V66H76.9887V58.608C76.9887 57.424 76.6927 56.52 76.1007 55.896C75.5087 55.256 74.7007 54.936 73.6767 54.936C72.6527 54.936 71.8367 55.256 71.2287 55.896C70.6367 56.52 70.3407 57.424 70.3407 58.608V66H67.6047V52.776H70.3407V54.288C70.7887 53.744 71.3567 53.32 72.0447 53.016C72.7327 52.712 73.4687 52.56 74.2527 52.56C75.3087 52.56 76.2527 52.784 77.0847 53.232C77.9167 53.68 78.5567 54.328 79.0047 55.176C79.4047 54.376 80.0287 53.744 80.8767 53.28C81.7247 52.8 82.6367 52.56 83.6127 52.56ZM95.2782 54.696C95.6782 54.024 96.2062 53.504 96.8622 53.136C97.5342 52.752 98.3262 52.56 99.2382 52.56V55.392H98.5422C97.4702 55.392 96.6542 55.664 96.0942 56.208C95.5502 56.752 95.2782 57.696 95.2782 59.04V66H92.5422V52.776H95.2782V54.696ZM107.489 66.216C106.241 66.216 105.113 65.936 104.105 65.376C103.097 64.8 102.305 64 101.729 62.976C101.153 61.936 100.865 60.736 100.865 59.376C100.865 58.032 101.161 56.84 101.753 55.8C102.345 54.76 103.153 53.96 104.177 53.4C105.201 52.84 106.345 52.56 107.609 52.56C108.873 52.56 110.017 52.84 111.041 53.4C112.065 53.96 112.873 54.76 113.465 55.8C114.057 56.84 114.353 58.032 114.353 59.376C114.353 60.72 114.049 61.912 113.441 62.952C112.833 63.992 112.001 64.8 110.945 65.376C109.905 65.936 108.753 66.216 107.489 66.216ZM107.489 63.84C108.193 63.84 108.849 63.672 109.457 63.336C110.081 63 110.585 62.496 110.969 61.824C111.353 61.152 111.545 60.336 111.545 59.376C111.545 58.416 111.361 57.608 110.993 56.952C110.625 56.28 110.137 55.776 109.529 55.44C108.921 55.104 108.265 54.936 107.561 54.936C106.857 54.936 106.201 55.104 105.593 55.44C105.001 55.776 104.529 56.28 104.177 56.952C103.825 57.608 103.649 58.416 103.649 59.376C103.649 60.8 104.009 61.904 104.729 62.688C105.465 63.456 106.385 63.84 107.489 63.84ZM116.146 59.328C116.146 58 116.418 56.824 116.962 55.8C117.522 54.776 118.274 53.984 119.218 53.424C120.178 52.848 121.242 52.56 122.41 52.56C123.274 52.56 124.122 52.752 124.954 53.136C125.802 53.504 126.474 54 126.97 54.624V48.24H129.73V66H126.97V64.008C126.522 64.648 125.898 65.176 125.098 65.592C124.314 66.008 123.41 66.216 122.386 66.216C121.234 66.216 120.178 65.928 119.218 65.352C118.274 64.76 117.522 63.944 116.962 62.904C116.418 61.848 116.146 60.656 116.146 59.328ZM126.97 59.376C126.97 58.464 126.778 57.672 126.394 57C126.026 56.328 125.538 55.816 124.93 55.464C124.322 55.112 123.666 54.936 122.962 54.936C122.258 54.936 121.602 55.112 120.994 55.464C120.386 55.8 119.89 56.304 119.506 56.976C119.138 57.632 118.954 58.416 118.954 59.328C118.954 60.24 119.138 61.04 119.506 61.728C119.89 62.416 120.386 62.944 120.994 63.312C121.618 63.664 122.274 63.84 122.962 63.84C123.666 63.84 124.322 63.664 124.93 63.312C125.538 62.96 126.026 62.448 126.394 61.776C126.778 61.088 126.97 60.288 126.97 59.376Z" fill="#FFFAFA"/>
<path d="M59.5 63.5C59.6667 64.3333 60.8 65.9 64 65.5C67.2 65.1 68.6667 66.6667 69 67.5M69 67.5L69.7236 68.9472C69.893 69.286 70.2393 69.5 70.618 69.5H128.5C129.052 69.5 129.5 69.0523 129.5 68.5V67.5C129.5 66.9477 129.052 66.5 128.5 66.5H70C69.4477 66.5 69 66.9477 69 67.5V67.5Z" stroke="white" stroke-width="2" stroke-linecap="round"/>
<defs>
<filter id="filter0_d_4_13" x="5.99973" y="3.5" width="62.0003" height="75.5003" filterUnits="userSpaceOnUse" color-interpolation-filters="sRGB">
<feFlood flood-opacity="0" result="BackgroundImageFix"/>
<feColorMatrix in="SourceAlpha" type="matrix" values="0 0 0 0 0 0 0 0 0 0 0 0 0 0 0 0 0 0 127 0" result="hardAlpha"/>
<feOffset dy="4"/>
<feGaussianBlur stdDeviation="2"/>
<feComposite in2="hardAlpha" operator="out"/>
<feColorMatrix type="matrix" values="0 0 0 0 0 0 0 0 0 0 0 0 0 0 0 0 0 0 0.25 0"/>
<feBlend mode="normal" in2="BackgroundImageFix" result="effect1_dropShadow_4_13"/>
<feBlend mode="normal" in="SourceGraphic" in2="effect1_dropShadow_4_13" result="shape"/>
</filter>
</defs>
</svg>
